<svg width="56" height="56" viewBox="0 0 56 56" fill="none" xmlns="http://www.w3.org/2000/svg">
<path d="M0 28C0 12.536 12.536 0 28 0C43.464 0 56 12.536 56 28C56 43.464 43.464 56 28 56C12.536 56 0 43.464 0 28Z" fill="#DADEE2"/>
<path fill-rule="evenodd" clip-rule="evenodd" d="M22.7409 13.9909C25.6455 11.0864 30.3546 11.0864 33.2592 13.9909C36.1637 16.8954 36.1637 21.6046 33.2592 24.5091C30.3546 27.4137 25.6455 27.4137 22.7409 24.5091C19.8364 21.6046 19.8364 16.8954 22.7409 13.9909ZM17.6832 31.8869C20.5312 30.2289 24.2675 29.3265 28 29.3265C31.7325 29.3265 35.4688 30.2289 38.3168 31.8869C41.153 33.538 43.3125 36.082 43.3125 39.375V41.125C43.3125 42.8159 41.9409 44.1875 40.25 44.1875H15.75C14.0591 44.1875 12.6875 42.8159 12.6875 41.125V39.375C12.6875 36.082 14.847 33.538 17.6832 31.8869Z" fill="#FAFAFC"/>
</svg>
