<svg width="24" height="24" viewBox="0 0 24 24" fill="none" xmlns="http://www.w3.org/2000/svg">
<path fill-rule="evenodd" clip-rule="evenodd" d="M15.2862 7.21913C13.0585 4.99147 9.44678 4.99147 7.21913 7.21913C4.99147 9.44678 4.99147 13.0585 7.21913 15.2862C9.44678 17.5138 13.0585 17.5138 15.2862 15.2862C17.5138 13.0585 17.5138 9.44678 15.2862 7.21913ZM16.381 6.12425C13.5487 3.29192 8.95658 3.29192 6.12425 6.12425C3.29192 8.95658 3.29192 13.5487 6.12425 16.381C8.95658 19.2134 13.5487 19.2134 16.381 16.381C19.2134 13.5487 19.2134 8.95658 16.381 6.12425Z" fill="#90A0B7"/>
<path fill-rule="evenodd" clip-rule="evenodd" d="M15.2822 15.2822C15.5846 14.9799 16.0748 14.9799 16.3771 15.2822L19.7732 18.6784C20.0756 18.9807 20.0756 19.4709 19.7732 19.7732C19.4709 20.0756 18.9807 20.0756 18.6784 19.7732L15.2822 16.3771C14.9799 16.0748 14.9799 15.5846 15.2822 15.2822Z" fill="#90A0B7"/>
</svg>
